<svg width="14" height="19" viewBox="0 0 14 19" fill="none" xmlns="http://www.w3.org/2000/svg">
<path d="M4.501 7.4529C4.501 8.16989 4.9678 9.60387 6.835 9.60387C8.7022 9.60387 9.169 8.16989 9.169 7.4529V3.15097C9.169 1.43019 7.613 1 6.835 1C4.9678 1 4.501 2.43398 4.501 3.15097V7.4529Z" fill="#DCDDDE"/>
<path d="M6.835 17.67V13.9058M6.835 13.9058C4.89 13.9058 1 13.0454 1 9.60387M6.835 13.9058C8.78 13.9058 12.67 13.0454 12.67 9.60387M6.835 9.60387C4.9678 9.60387 4.501 8.16989 4.501 7.4529V3.15097C4.501 2.43398 4.9678 1 6.835 1C7.613 1 9.169 1.43019 9.169 3.15097V7.4529C9.169 8.16989 8.7022 9.60387 6.835 9.60387Z" stroke="#DCDDDE" stroke-width="2" stroke-linecap="round"/>
</svg>
