<svg width="19" height="19" viewBox="0 0 19 19" fill="none" xmlns="http://www.w3.org/2000/svg">
<path d="M1 16.5945V12.8303H3.22267C3.59311 12.8303 4.334 13.153 4.334 14.4435V16.5945C4.334 16.953 4.11173 17.67 3.22267 17.67C2.48178 17.67 1 17.4549 1 16.5945Z" fill="#DCDDDE"/>
<path d="M17.67 16.5945V12.8303H16.003C15.4473 12.8303 14.336 13.153 14.336 14.4435V16.5945C14.336 16.953 14.5583 17.67 15.4473 17.67C16.1882 17.67 17.67 17.4549 17.67 16.5945Z" fill="#DCDDDE"/>
<path d="M1 12.8303V16.5945C1 17.4549 2.48178 17.67 3.22267 17.67C4.11173 17.67 4.334 16.953 4.334 16.5945V14.4435C4.334 13.153 3.59311 12.8303 3.22267 12.8303H1ZM1 12.8303V7.4529C1 2.29058 6.55667 1 9.335 1C16.003 1 17.67 4.94344 17.67 6.91516V12.8303M17.67 12.8303V16.5945C17.67 17.4549 16.1882 17.67 15.4473 17.67C14.5583 17.67 14.336 16.953 14.336 16.5945V14.4435C14.336 13.153 15.4473 12.8303 16.003 12.8303H17.67Z" stroke="#DCDDDE" stroke-width="2"/>
</svg>
