<svg width="19" height="19" viewBox="0 0 19 19" fill="none" xmlns="http://www.w3.org/2000/svg">
<path fill-rule="evenodd" clip-rule="evenodd" d="M7.56244 2.25878C7.80155 2.19908 8.04533 2.15118 8.29313 2.11573V1H10.3769V2.11573C11.4567 2.27019 12.4603 2.6612 13.3333 3.23457L14.0234 2.56281L16.1072 4.64656L15.4306 5.32942C15.8171 5.91639 16.1211 6.5625 16.3261 7.25125H16.6281V9.335C16.6281 11.0961 16.1851 12.4585 15.4997 13.5025L16.1072 14.0234L14.0234 16.1072L13.4244 15.4791C12.6673 15.9369 11.8611 16.234 11.1076 16.4112C10.8685 16.4709 10.6247 16.5188 10.3769 16.5543V17.67H8.29313V16.5731C7.0521 16.4376 6.04104 16.0605 5.2225 15.5354L4.64656 16.1072L2.56281 14.0234L3.23885 13.5025C2.7537 12.7229 2.44206 11.887 2.25878 11.1076C2.19908 10.8685 2.15118 10.6247 2.11573 10.3769H1V8.29313H2.09691C2.2327 7.04896 2.61137 6.03592 3.13856 5.21628L2.56281 4.64656L4.64656 2.56281L5.27079 3.17577C6.02057 2.72651 6.81731 2.43399 7.56244 2.25878ZM9.335 5.1675C6.001 5.1675 5.1675 7.94583 5.1675 9.335C5.1675 12.669 7.94583 13.5025 9.335 13.5025C12.669 13.5025 13.5025 10.7242 13.5025 9.335C13.5025 6.001 10.7242 5.1675 9.335 5.1675Z" fill="#DCDDDE"/>
<path d="M8.29313 2.11573L8.36392 2.61069L8.79313 2.11573H8.29313ZM7.56244 2.25878L7.6769 2.74555L7.68356 2.74389L7.56244 2.25878ZM8.29313 1V0.5L7.79313 1H8.29313ZM10.3769 1H10.8769L10.3769 0.5V1ZM10.3769 2.11573H9.87687L10.3061 2.61069L10.3769 2.11573ZM13.3333 3.23457L13.0588 3.6525L13.6821 3.59286L13.3333 3.23457ZM14.0234 2.56281L14.377 2.20926L13.6747 2.20452L14.0234 2.56281ZM16.1072 4.64656L16.4624 4.99847L16.4607 4.29301L16.1072 4.64656ZM15.4306 5.32942L15.0755 4.97751L15.013 5.60439L15.4306 5.32942ZM16.3261 7.25125L15.8469 7.39388L16.3261 7.75125V7.25125ZM16.6281 7.25125H17.1281L16.6281 6.75125V7.25125ZM15.4997 13.5025L15.0818 13.2281L15.1742 13.882L15.4997 13.5025ZM16.1072 14.0234L16.4607 14.377L16.4327 13.6439L16.1072 14.0234ZM14.0234 16.1072L13.6616 16.4523L14.377 16.4607L14.0234 16.1072ZM13.4244 15.4791L13.7862 15.134L13.1656 15.0512L13.4244 15.4791ZM11.1076 16.4112L10.9931 15.9244L10.9865 15.9261L11.1076 16.4112ZM10.3769 16.5543L10.3061 16.0593L9.87687 16.5543H10.3769ZM10.3769 17.67V18.17L10.8769 17.67H10.3769ZM8.29313 17.67H7.79313L8.29313 18.17V17.67ZM8.29313 16.5731H8.79313L8.34737 16.076L8.29313 16.5731ZM5.2225 15.5354L5.49247 15.1146L4.87023 15.1806L5.2225 15.5354ZM4.64656 16.1072L4.29301 16.4607L4.99883 16.462L4.64656 16.1072ZM2.56281 14.0234L2.25762 13.6274L2.20926 14.377L2.56281 14.0234ZM3.23885 13.5025L3.54404 13.8986L3.66335 13.2383L3.23885 13.5025ZM2.25878 11.1076L2.74555 10.9931L2.74389 10.9864L2.25878 11.1076ZM2.11573 10.3769L2.61069 10.3061L2.11573 9.87687V10.3769ZM1 10.3769H0.5L1 10.8769V10.3769ZM1 8.29313V7.79313L0.5 8.29313H1ZM2.09691 8.29313V8.79313L2.59395 8.34737L2.09691 8.29313ZM3.13856 5.21628L3.55909 5.48675L3.49025 4.86086L3.13856 5.21628ZM2.56281 4.64656L2.20926 4.29301L2.21113 5.00197L2.56281 4.64656ZM4.64656 2.56281L4.99688 2.20605L4.29301 2.20926L4.64656 2.56281ZM5.27079 3.17577L4.92047 3.53253L5.52778 3.60467L5.27079 3.17577ZM8.22182 1.6254C7.9485 1.66478 7.75885 1.91827 7.79824 2.19159C7.83762 2.46491 8.09111 2.65456 8.36443 2.61517L8.22182 1.6254ZM9.335 2.04188L9.37062 1.54315L9.335 1.54188V2.04188ZM10.2917 2.66009C10.5639 2.70711 10.8226 2.52463 10.8696 2.25252C10.9166 1.98041 10.7341 1.72171 10.462 1.67469L10.2917 2.66009ZM16.6281 7.79313C16.352 7.79313 16.1281 8.01698 16.1281 8.29313C16.1281 8.56927 16.352 8.79313 16.6281 8.79313V7.79313ZM17.67 8.29313H18.17L17.67 7.79313V8.29313ZM17.67 10.3769V10.8769L18.17 10.3769H17.67ZM16.6281 9.87687C16.352 9.87687 16.1281 10.1007 16.1281 10.3769C16.1281 10.653 16.352 10.8769 16.6281 10.8769V9.87687ZM15.9177 13.7769C16.0693 13.5461 16.005 13.2361 15.7742 13.0845C15.5433 12.933 15.2333 12.9973 15.0818 13.2281L15.9177 13.7769ZM13.1656 15.0512C12.9294 15.1941 12.8536 15.5015 12.9965 15.7378C13.1394 15.9741 13.4468 16.0498 13.6831 15.9069L13.1656 15.0512ZM13.5752 2.83697C13.3419 2.68928 13.033 2.75869 12.8853 2.99202C12.7376 3.22535 12.807 3.53422 13.0403 3.68192L13.5752 2.83697ZM13.5025 3.38734L13.784 2.97408L13.784 2.97408L13.5025 3.38734ZM14.9915 5.62042C15.1415 5.85229 15.451 5.9187 15.6829 5.76874C15.9148 5.61878 15.9812 5.30924 15.8312 5.07737L14.9915 5.62042ZM10.4482 17.0446C10.7215 17.0052 10.9111 16.7517 10.8718 16.4784C10.8324 16.2051 10.5789 16.0154 10.3056 16.0548L10.4482 17.0446ZM8.29313 16.5731H7.79313L8.23888 17.0701L8.29313 16.5731ZM8.79313 16.5497C8.79313 16.2736 8.56927 16.0497 8.29313 16.0497C8.01698 16.0497 7.79313 16.2736 7.79313 16.5497H8.79313ZM4.95252 15.9563C5.18494 16.1054 5.49424 16.0378 5.64334 15.8054C5.79245 15.573 5.7249 15.2637 5.49247 15.1146L4.95252 15.9563ZM3.66335 13.2383C3.51745 13.0039 3.20911 12.9321 2.97466 13.078C2.74021 13.2239 2.66843 13.5322 2.81434 13.7667L3.66335 13.2383ZM1.6254 10.4482C1.66478 10.7215 1.91827 10.9111 2.19159 10.8718C2.46491 10.8324 2.65456 10.5789 2.61517 10.3056L1.6254 10.4482ZM2.59395 8.34737C2.62391 8.07286 2.42567 7.82604 2.15115 7.79608C1.87664 7.76612 1.62982 7.96436 1.59986 8.23888L2.59395 8.34737ZM2.71804 4.9458C2.56866 5.17804 2.63583 5.48742 2.86808 5.6368C3.10033 5.78618 3.40971 5.719 3.55909 5.48675L2.71804 4.9458ZM5.52778 3.60467C5.76466 3.46273 5.84162 3.15565 5.69969 2.91877C5.55776 2.6819 5.25067 2.60494 5.0138 2.74687L5.52778 3.60467ZM8.22233 1.62077C7.95751 1.65865 7.69694 1.70985 7.44131 1.77368L7.68356 2.74389C7.90615 2.68831 8.13314 2.64371 8.36392 2.61069L8.22233 1.62077ZM7.79313 1V2.11573H8.79313V1H7.79313ZM10.3769 0.5H8.29313V1.5H10.3769V0.5ZM10.8769 2.11573V1H9.87687V2.11573H10.8769ZM13.6078 2.81664C12.6749 2.20395 11.602 1.78589 10.4477 1.62077L10.3061 2.61069C11.3114 2.75449 12.2457 3.11845 13.0588 3.6525L13.6078 2.81664ZM13.6747 2.20452L12.9846 2.87628L13.6821 3.59286L14.3722 2.9211L13.6747 2.20452ZM16.4607 4.29301L14.377 2.20926L13.6699 2.91637L15.7536 5.00012L16.4607 4.29301ZM15.7858 5.68133L16.4624 4.99847L15.752 4.29466L15.0755 4.97751L15.7858 5.68133ZM16.8053 7.10863C16.5862 6.37222 16.2612 5.68161 15.8482 5.05445L15.013 5.60439C15.3731 6.15117 15.6561 6.75278 15.8469 7.39388L16.8053 7.10863ZM16.6281 6.75125H16.3261V7.75125H16.6281V6.75125ZM17.1281 9.335V7.25125H16.1281V9.335H17.1281ZM15.9177 13.7769C16.6617 12.6437 17.1281 11.1839 17.1281 9.335H16.1281C16.1281 11.0083 15.7086 12.2734 15.0818 13.2281L15.9177 13.7769ZM16.4327 13.6439L15.8252 13.123L15.1742 13.882L15.7817 14.403L16.4327 13.6439ZM14.377 16.4607L16.4607 14.377L15.7536 13.6699L13.6699 15.7536L14.377 16.4607ZM13.0626 15.8242L13.6616 16.4523L14.3853 15.7621L13.7862 15.134L13.0626 15.8242ZM11.2221 16.8979C12.0179 16.7108 12.8744 16.396 13.6831 15.9069L13.1656 15.0512C12.4602 15.4778 11.7042 15.7573 10.9932 15.9245L11.2221 16.8979ZM10.4477 17.0492C10.7125 17.0113 10.9731 16.9601 11.2287 16.8963L10.9865 15.9261C10.7639 15.9817 10.5369 16.0263 10.3061 16.0593L10.4477 17.0492ZM10.8769 17.67V16.5543H9.87687V17.67H10.8769ZM8.29313 18.17H10.3769V17.17H8.29313V18.17ZM7.79313 16.5731V17.67H8.79313V16.5731H7.79313ZM4.95252 15.9563C5.83947 16.5253 6.92508 16.9268 8.23888 17.0701L8.34737 16.076C7.17912 15.9485 6.24261 15.5958 5.49247 15.1146L4.95252 15.9563ZM4.99883 16.462L5.57476 15.8903L4.87023 15.1806L4.2943 15.7523L4.99883 16.462ZM2.20926 14.377L4.29301 16.4607L5.00012 15.7536L2.91637 13.6699L2.20926 14.377ZM2.93365 13.1064L2.25762 13.6274L2.868 14.4195L3.54404 13.8986L2.93365 13.1064ZM1.77206 11.222C1.96562 12.0452 2.29583 12.9335 2.81434 13.7667L3.66335 13.2383C3.21157 12.5124 2.9185 11.7288 2.74551 10.9931L1.77206 11.222ZM1.62077 10.4477C1.65865 10.7125 1.70985 10.9731 1.77368 11.2287L2.74389 10.9864C2.68831 10.7638 2.64371 10.5369 2.61069 10.3061L1.62077 10.4477ZM1 10.8769H2.11573V9.87687H1V10.8769ZM0.5 8.29313V10.3769H1.5V8.29313H0.5ZM2.09691 7.79313H1V8.79313H2.09691V7.79313ZM2.71804 4.9458C2.14677 5.83397 1.74361 6.92174 1.59986 8.23888L2.59395 8.34737C2.72178 7.17617 3.07597 6.23787 3.55909 5.48675L2.71804 4.9458ZM2.21113 5.00197L2.78688 5.57169L3.49025 4.86086L2.9145 4.29115L2.21113 5.00197ZM4.29301 2.20926L2.20926 4.29301L2.91637 5.00012L5.00012 2.91637L4.29301 2.20926ZM5.62111 2.81901L4.99688 2.20605L4.29625 2.91957L4.92047 3.53253L5.62111 2.81901ZM7.44799 1.77206C6.66092 1.95713 5.81456 2.26706 5.0138 2.74687L5.52778 3.60467C6.22657 3.18596 6.97371 2.91085 7.67689 2.74551L7.44799 1.77206ZM5.6675 9.335C5.6675 8.72043 5.85598 7.78744 6.40676 7.02246C6.93919 6.28298 7.83096 5.6675 9.335 5.6675V4.6675C7.50504 4.6675 6.31305 5.44118 5.59523 6.43816C4.89576 7.40964 4.6675 8.5604 4.6675 9.335H5.6675ZM9.335 13.0025C8.72042 13.0025 7.78744 12.814 7.02246 12.2632C6.28298 11.7308 5.6675 10.839 5.6675 9.335H4.6675C4.6675 11.165 5.44118 12.3569 6.43816 13.0748C7.40964 13.7742 8.5604 14.0025 9.335 14.0025V13.0025ZM13.0025 9.335C13.0025 9.94957 12.814 10.8826 12.2632 11.6475C11.7308 12.387 10.839 13.0025 9.335 13.0025V14.0025C11.165 14.0025 12.3569 13.2288 13.0748 12.2318C13.7742 11.2604 14.0025 10.1096 14.0025 9.335H13.0025ZM9.335 5.6675C9.94957 5.6675 10.8826 5.85598 11.6475 6.40677C12.387 6.93919 13.0025 7.83096 13.0025 9.335H14.0025C14.0025 7.50504 13.2288 6.31306 12.2318 5.59523C11.2604 4.89577 10.1096 4.6675 9.335 4.6675V5.6675ZM8.36443 2.61517C8.71914 2.56407 9.04774 2.54188 9.335 2.54188V1.54188C8.99762 1.54188 8.62132 1.56783 8.22182 1.6254L8.36443 2.61517ZM9.29938 2.5406C9.64749 2.56547 9.978 2.60589 10.2917 2.66009L10.462 1.67469C10.1143 1.61462 9.7507 1.57029 9.37062 1.54315L9.29938 2.5406ZM16.6281 8.79313H17.67V7.79313H16.6281V8.79313ZM17.17 8.29313V10.3769H18.17V8.29313H17.17ZM17.67 9.87687H16.6281V10.8769H17.67V9.87687ZM15.0818 13.2281C14.5637 14.0172 13.8926 14.6116 13.1656 15.0512L13.6831 15.9069C14.5192 15.4013 15.3065 14.7078 15.9177 13.7769L15.0818 13.2281ZM13.0403 3.68192C13.1017 3.72077 13.1619 3.76034 13.221 3.8006L13.784 2.97408C13.7156 2.92754 13.646 2.88182 13.5752 2.83697L13.0403 3.68192ZM13.221 3.8006C13.9802 4.31764 14.5582 4.95036 14.9915 5.62042L15.8312 5.07737C15.3328 4.30674 14.6641 3.57351 13.784 2.97408L13.221 3.8006ZM10.3056 16.0548C9.95086 16.1059 9.62226 16.1281 9.335 16.1281V17.1281C9.67238 17.1281 10.0487 17.1022 10.4482 17.0446L10.3056 16.0548ZM8.79313 16.5731V16.5497H7.79313V16.5731H8.79313ZM9.335 16.1281C8.98825 16.1281 8.65932 16.1101 8.34737 16.076L8.23888 17.0701C8.58837 17.1083 8.95356 17.1281 9.335 17.1281V16.1281ZM5.49247 15.1146C4.70456 14.6091 4.10783 13.9525 3.66335 13.2383L2.81434 13.7667C3.3263 14.5893 4.02318 15.3601 4.95252 15.9563L5.49247 15.1146ZM2.61517 10.3056C2.56407 9.95086 2.54188 9.62226 2.54188 9.335H1.54188C1.54188 9.67238 1.56783 10.0487 1.6254 10.4482L2.61517 10.3056ZM2.54188 9.335C2.54188 8.98825 2.55991 8.65932 2.59395 8.34737L1.59986 8.23888C1.56171 8.58837 1.54188 8.95356 1.54188 9.335H2.54188ZM3.55909 5.48675C4.0866 4.66661 4.77812 4.05386 5.52778 3.60467L5.0138 2.74687C4.1519 3.26331 3.34035 3.97827 2.71804 4.9458L3.55909 5.48675Z" fill="#DCDDDE"/>
</svg>
